<svg xmlns="http://www.w3.org/2000/svg" fill="#93a1a1" viewBox="0 0 1000 1000" xml:space="preserve"><path d="M949.2 990H173.3C83.5 990 10 916.5 10 826.7V50.8C10 26.3 26.3 10 50.8 10c24.5 0 40.8 16.3 40.8 40.8v775.8c0 44.9 36.7 81.7 81.7 81.7h775.8c24.5 0 40.8 16.3 40.8 40.8.1 24.6-16.2 40.9-40.7 40.9z"/><path d="M214.2 826.7c-24.5 0-40.8-16.3-40.8-40.8V581.7c0-24.5 16.3-40.8 40.8-40.8 24.5 0 40.8 16.3 40.8 40.8v204.2c0 24.4-16.3 40.8-40.8 40.8zM377.5 826.7c-24.5 0-40.8-16.3-40.8-40.8V418.3c0-24.5 16.3-40.8 40.8-40.8 24.5 0 40.8 16.3 40.8 40.8v367.5c0 24.5-16.3 40.9-40.8 40.9zM540.8 826.7c-24.5 0-40.8-16.3-40.8-40.8V500c0-24.5 16.3-40.8 40.8-40.8 24.5 0 40.8 16.3 40.8 40.8v285.8c.1 24.5-16.3 40.9-40.8 40.9zM704.2 826.7c-24.5 0-40.8-16.3-40.8-40.8v-490c0-24.5 16.3-40.8 40.8-40.8 24.5 0 40.8 16.3 40.8 40.8v490c0 24.4-16.3 40.8-40.8 40.8zM867.5 826.7c-24.5 0-40.8-16.3-40.8-40.8v-245c0-24.5 16.3-40.8 40.8-40.8s40.8 16.3 40.8 40.8v245c0 24.4-16.3 40.8-40.8 40.8z"/></svg>
