<svg xmlns="http://www.w3.org/2000/svg" fill="#93a1a1" viewBox="0 0 1000 1000" xml:space="preserve"><path d="M481.26 12.52c-33.53 8.09-58.18 34.71-64.1 68.83l-2.37 13.21h-44.77c-39.05 0-45.56.59-52.46 3.75-15.58 7.1-20.51 17.75-20.71 44.97v18.34h-59.56c-37.28 0-62.72.79-67.65 2.17-9.86 2.76-19.72 12.62-22.48 22.48-2.96 11.04-2.96 768.02 0 779.06 2.76 9.86 12.62 19.72 22.48 22.49 5.52 1.58 102.36 2.17 330.36 2.17s324.84-.59 330.36-2.17c9.86-2.76 19.72-12.62 22.48-22.49 2.96-11.04 2.96-768.02 0-779.06-2.76-9.86-12.62-19.72-22.48-22.48-4.93-1.38-30.18-2.17-67.25-2.17h-59.56l-.79-21.3c-.79-24.06-3.35-30.57-14.79-39.25l-7.1-5.52-47.93-.59-47.73-.59-2.37-13.21c-6.11-35.11-31.75-61.93-66.66-69.23-13.02-2.76-22.1-2.56-34.92.59zm34.32 33.93c14.79 4.34 28.4 18.14 32.74 33.13 5.52 18.74 1.38 47.73-8.68 61.54-21.3 28.99-68.64 24.65-83.63-7.5-6.71-14.4-8.68-39.84-4.34-54.63 5.92-19.53 26.82-35.11 47.53-35.5 3.36-.2 10.66 1.18 16.38 2.96zM296.85 229.68v16.76h406.3v-33.52h100.58v725.8H196.27v-725.8h100.58v16.76z"/><path d="m406.32 331.25-41.42 41.42h-25.84l-8.48-15.78c-4.54-8.68-8.68-15.78-9.27-15.78-1.78 0-22.48 14.4-22.48 15.58 0 .79 2.17 4.54 4.93 8.28l5.13 6.71-5.52.99-5.52.99-.59 42.01-.39 41.81h84.8V395.35l33.53-27.61 33.53-27.61v-25.25c0-13.81-.2-25.05-.59-25.05-.21 0-19.14 18.54-41.82 41.42zm-71.4 74.95c6.51 8.68 12.43 15.78 13.61 15.78s5.33-2.76 9.27-6.31l7.1-6.31.59 13.61c.39 7.3.2 14.59-.39 16.17-.79 1.97-6.9 2.56-25.84 2.56H314.6v-25.64c0-25.25 0-25.64 4.54-25.64 3.16.2 7.49 4.34 15.78 15.78zM432.94 398.31v7.89h270.2v-15.78h-270.2v7.89zM432.94 431.84v7.89l12.42.2c6.71 0 67.26.2 134.51.2l122.28.2.59-8.28.59-8.09h-270.4v7.88zM406.12 518.82l-41.62 41.42-12.62-.59-12.62-.59-8.09-15.38c-4.34-8.48-8.68-15.58-9.47-15.78-1.97-.59-22.88 13.21-22.88 14.99 0 .99 2.17 4.54 4.93 8.09 6.31 8.28 6.11 9.07-.99 9.07h-5.92v82.84h84.61l.59-30.96.59-31.16 32.94-27.61 33.13-27.61v-24.29c0-13.22-.2-24.06-.39-24.06-.38 0-19.31 18.74-42.19 41.62zm-71.6 73.17c6.71 9.07 12.62 16.76 13.02 17.16.39.59 3.15-1.38 6.11-3.94 12.62-11.64 12.23-11.83 12.23 5.92v15.97H314.6v-25.64c0-24.06.2-25.64 3.95-25.64 2.37 0 8.08 5.52 15.97 16.17zM432.94 584.69v8.88l134.71-.4 134.51-.59.59-8.48.59-8.28h-270.4v8.87zM432.94 618.22v8.88l134.71-.39 134.51-.59v-15.78l-134.51-.59-134.71-.39v8.86zM296.85 786.85v41.42h84.8v-82.84h-84.8v41.42zm68.64.4.59 25.25H314.6V761.02l25.25.59 25.05.59.59 25.05zM432.94 770.09v8.88h270.4l-.59-8.48-.59-8.28-134.51-.59-134.71-.4v8.87zM432.94 804.6v7.89h270.2v-15.78h-270.2v7.89z"/></svg>
