<svg xmlns="http://www.w3.org/2000/svg" fill="#93a1a1" viewBox="0 0 1000 1000" xml:space="preserve"><path d="M602.17 113.33C469.48 174.34 37.64 374.13 28.71 378.71c-14.38 7.19-19.83 15.03-18.52 25.93 1.09 10.02 156.44 347.96 163.41 355.58 6.97 7.63 16.78 10.02 26.8 6.54 4.79-1.74 119.4-54.25 254.7-117 135.52-62.75 274.1-126.81 308.09-142.5 42.7-19.61 63.19-30.29 66.02-34.21 9.37-12.42 9.58-11.33-76.04-196.96-56.21-121.58-82.14-175.18-85.84-178.01-11.56-8.5-15.48-7.63-65.16 15.25zm106.11 184.98c37.48 81.05 67.98 147.72 67.54 147.94-.44.44-536.42 248.17-558.65 258.19l-13.29 5.88-67.98-146.85c-37.47-81.05-67.54-147.5-66.89-148.15.44-.43 93.91-44.01 207.64-96.52 113.73-52.51 241.63-111.77 284.12-131.6 42.49-19.83 77.78-35.95 78.44-36.17.65 0 31.81 66.23 69.07 147.28z"/><path d="M391.92 291.56c-41.18 9.15-78.44 38.13-96.74 74.95-11.98 24.4-16.12 45.32-14.82 71.9 3.49 62.31 45.54 113.3 107.2 129.64 16.99 4.58 48.37 4.58 67.54 0 39.22-8.93 74.95-37.26 92.16-72.99 5.01-10.24 10.68-24.4 12.42-31.59 4.14-16.56 4.14-48.37-.22-66.45-11.33-48.37-49.9-88.68-98.92-103.28-17.42-5.23-50.1-6.32-68.62-2.18zm-2.18 58.83 4.36 8.71 10.02-1.96c13.29-2.61 25.93 1.09 35.73 10.24 8.72 8.5 9.37 11.55 3.05 19.61-5.88 7.41-10.89 7.19-20.04-.65-7.63-6.75-18.96-11.11-18.96-7.19 0 1.09 3.49 9.59 7.84 18.74l7.84 16.56 13.73-1.31c22.01-2.18 36.17 4.58 45.1 21.57 5.88 11.33 6.1 28.11.65 38.57-2.18 4.14-7.84 11.33-12.64 15.69l-8.72 8.06 5.01 11.55c4.59 10.67 4.59 11.32.89 14.15-5.01 3.71-8.93.44-14.38-11.55l-3.92-9.15-9.15 2.18c-17.87 3.92-39.44-3.7-47.5-16.99-5.45-8.72-5.45-12.86 0-18.3 6.54-6.54 12.42-5.45 23.31 4.36 6.75 5.88 11.98 8.71 16.12 8.71 3.49 0 6.32-.87 6.32-1.96 0-.87-3.7-9.8-8.5-19.61l-8.28-17.87-18.3-.43c-15.25-.44-19.39-1.31-25.49-5.45-16.56-11.98-21.79-37.91-10.89-54.47 3.27-4.79 8.93-10.68 12.64-12.64 4.36-2.83 6.1-5.01 5.23-7.41-5.01-11.77-5.88-15.03-4.58-18.3 2.39-6.1 8.71-3.05 13.51 6.54z"/><path d="M387.12 386.56c-5.88 7.41-7.19 12.2-4.79 18.96 2.83 7.84 7.63 11.11 16.99 11.11h6.54l-6.75-14.82c-8.07-17.65-9.16-18.96-11.99-15.25zM432.22 440.37c0 .87 3.7 9.8 8.28 19.61l8.28 17.87 4.79-5.23c8.93-9.59 5.88-27.89-5.23-32.03-6.75-2.61-16.12-2.83-16.12-.22zM883.24 491.14c-3.48 12.86-11.33 24.4-22.22 32.25l-8.93 6.54h87.8v326.82H310.21v-38.13c0-20.92-.65-38.13-1.53-38.13-1.09.22-11.98 5.01-24.62 10.68l-22.88 10.67-.65 42.71c-.44 35.51 0 43.79 2.83 49.46 7.19 13.73-14.6 12.86 361.9 12.86 376.93 0 352.97.87 361.03-12.86 3.49-5.88 3.71-21.57 3.71-201.76V496.8l-7.41-7.41-7.41-7.41H885.63l-2.39 9.16z"/><path d="M691.5 603.13c-16.12 7.63-30.29 14.16-31.59 14.6-1.09.44 1.53 5.01 6.1 9.8 6.75 7.63 8.06 10.68 8.06 18.52 0 11.33-2.83 14.6-12.42 14.6-6.32 0-7.63-1.09-12.64-10.89-7.84-15.69-16.34-18.74-32.46-11.98-8.06 3.49-12.85 10.24-15.47 22.22l-1.53 7.19h17.87c14.16 0 17.87.65 18.96 3.49 2.83 7.63-2.18 10.67-19.83 11.33l-16.56.66v17.22h18.52c17.87 0 18.52.22 18.52 5.01 0 8.28-4.14 10.24-21.13 10.24-17.86 0-17.65-.22-12.64 16.56 4.14 14.38 11.77 21.57 22.66 21.35 12.2-.44 16.99-3.92 23.97-17.87 8.28-16.12 11.76-19.17 19.39-16.56 21.13 7.41 5.45 44.45-22.88 54.03-12.42 4.36-30.94 4.58-40.74.44-17.43-7.19-32.03-27.45-35.3-48.59-1.31-8.93-1.74-9.37-8.71-9.37-8.71 0-10.46-2.4-7.19-9.58 1.74-3.7 4.36-5.67 7.84-5.67 4.36 0 5.01-1.09 5.01-8.72 0-8.5-.22-8.71-7.63-8.71-4.79 0-7.63-1.09-7.63-2.83 0-5.23 6.76-12.42 11.77-12.42 3.27 0 5.66-1.53 6.32-4.14 1.09-4.79 4.79-6.1-51.86 20.04l-34.86 16.12.65 8.5c1.09 15.69 5.23 30.28 13.95 48.8 7.41 15.25 12.2 21.79 27.67 37.04 29.41 29.2 58.61 41.4 99.35 41.4 24.18 0 40.31-3.92 63.84-15.47 64.06-31.38 94.13-108.5 68.85-176.05-6.32-16.78-19.39-37.69-29.63-47.28l-7.19-6.76-29.41 13.73z"/></svg>
