<svg xmlns="http://www.w3.org/2000/svg" fill="#93a1a1" viewBox="0 0 1000 1000" xml:space="preserve"><path d="M916.8 797.4c-1.8-1.4-3.9-2.8-6.4-4.2-10.6-3.9-19.2-10.4-25.8-19.4-6.5-9-9.8-19.6-9.8-31.7 0-12.4 3.9-23.5 11.7-33.2 7.8-9.7 17.2-16.6 28.2-20.5 2.9-1.1 5.6-3.3 8.3-6.6 2.6-3.4 3.6-8.1 2.9-14.1-1.4-10.3-4.1-20.5-8.2-30.6-4.1-10.1-8.8-17.7-14.1-22.6-2.9-2.8-6.3-4.4-10.4-4.8-4.1-.4-7.6.3-10.4 2.1-10.6 5-22.2 7-34.6 6.1-12.4-.9-22.9-5.6-31.4-14.1s-13.6-18.5-15.4-29.8c-1.7-11.4-.3-22.2 4.3-32.5.7-1.4 1.4-3.8 2.1-7.2.7-3.4.2-6.5-1.6-9.3-2.9-4.6-6.6-8.9-11.5-12.8-4.7-3.9-10-7.1-15.7-9.6-5.6-2.5-11.4-4.5-17.3-5.9-5.9-1.4-11.3-2.1-16.2-2.1-3.2 0-6.3 1.5-9.3 4.5-3 3-5.2 5.9-6.6 8.8-3.9 10.6-10.6 19.4-20.2 26.3-9.6 6.9-20.6 10.4-33 10.4-12 0-22.5-3.7-31.4-10.9-8.9-7.3-15.3-15.7-19.2-25.3-1.1-3.2-2.9-6.3-5.6-9.3-2.7-3-6.3-4.5-10.9-4.5-3.5 0-8.3.6-14.4 1.9-6 1.3-12.2 3.1-18.6 5.6-6.4 2.5-12.3 5.6-17.8 9.3-5.5 3.7-9.3 8.1-11.5 13-1 2.1-1.3 4.6-.8 7.5.5 2.8 1.2 5.3 1.9 7.5.3 2.1.8 5.6 1.3 10.6.6 5 .6 10.5 0 16.5-.5 6-1.8 12.1-3.7 18.4-2 6.2-5.1 11.4-9.3 15.7-8.9 8.5-19.1 13.5-30.6 15.1-11.5 1.6-22.6.3-33.3-4-3.2-1.1-6.1-1.8-8.8-2.1-2.7-.3-5.4.3-8.3 2.1-3.5 2.1-6.8 5.4-9.8 9.8-3 4.5-5.7 9.3-8 14.6-2.3 5.3-4.2 10.8-5.6 16.5-1.4 5.7-2.1 10.8-2.1 15.4 0 4.2 1.1 8.4 3.2 12.5s4.8 6.6 7.9 7.6c10.6 4.3 20.2 11 28.7 20.2s12.8 20.1 12.8 32.5c0 12.1-4.2 23-12.8 32.7-8.5 9.8-18.1 16.8-28.7 21-6.1 2.1-9.6 7.1-10.6 14.9-.7 4.3-.3 9.7 1.1 16.2 1.4 6.6 3.5 13 6.1 19.2 2.7 6.2 5.7 11.9 9 17 3.4 5.1 7 8.4 10.9 9.8 5 2.1 10 2.5 14.9 1.1 7.8-2.5 15.4-3.9 22.9-4.3 6.4-.3 13.1.3 20.2 1.9 7.1 1.6 13.1 5 18.1 10.4 8.2 8.9 12.7 18.5 13.6 29 .9 10.5-.6 19.8-4.5 28-2.8 6-4.2 10.7-4 14.1.2 3.3 1.2 6.3 2.9 8.8 2.5 3.5 6.2 7.1 11.2 10.6 5 3.6 10.5 6.7 16.8 9.3 6.2 2.7 12.4 4.9 18.6 6.6 6.2 1.8 11.8 2.7 16.8 2.7 4.3 0 8.2-1 11.7-2.9 3.6-2 6.2-5.1 8-9.3 3.9-10.6 10.7-19.9 20.5-27.9 9.7-8 20.7-12 32.7-12 12.5 0 23.3 4 32.7 12 9.4 8 16 17.4 19.9 28.5h.5c1.1 2.8 3.1 5.5 5.9 8 2.9 2.5 5.8 3.7 9 3.7 4.7 0 10-.7 16-2.1 6.1-1.4 11.9-3.4 17.3-5.9 5.5-2.5 10.5-5.2 15.2-8.3 4.6-3 8-5.9 10.1-8.8 4.6-7.1 5.1-14.2 1.6-21.3-4.6-10.3-6.2-21.1-4.8-32.5 1.4-11.4 6.4-21.5 15-30.3 3.8-4.2 8.6-7.3 14.1-9.1 5.5-1.7 11-2.9 16.4-3.4 5.5-.5 10.9-.3 16.3.5 5.3.9 9.8 1.9 13.3 2.9 3.9 1.4 7.4 2.1 10.6 2.1 3.2 0 6.9-1.1 11.2-3.2 4.2-2.1 8.2-5.6 11.7-10.6s6.5-10.5 9-16.8c2.5-6.2 4.3-12.3 5.3-18.4 1.1-6 1.3-11.1.6-15.4-1.4-4.6-4.1-8.7-8-11.9zm-132.4-10.9c-6 14-14.3 26.3-24.8 37-10.5 10.6-22.8 19-37 25-14.1 6-29.2 9.1-45.2 9.1-15.9 0-30.9-3-44.9-9.1s-26.2-14.4-36.7-25c-10.5-10.7-18.7-23-24.8-37-6-14-9.1-29-9.1-44.9 0-15.9 3-31 9.1-44.9 6-14 14.3-26.3 24.8-36.7 10.4-10.5 22.7-18.7 36.7-24.8 14-6 29-9 45-9 15.9 0 31.1 3 45.2 9 14.2 6 26.5 14.3 37 24.8s18.7 22.7 24.8 36.7c6 14 9 29 9 44.9-.1 15.9-3.1 30.9-9.1 44.9z"/><path d="M430.5 753.5c.7-1.1 1.4-2.2 1.9-3.3.2-.5.4-1 .5-1.5.4-1.5.8-3 1.1-4.5 0-.2.1-.4.1-.6.1-1.4.2-2.8.2-4.2 0-1.5 0-3.1-.2-4.6-.6-2.7-1.3-5.3-2.3-7.9v-.1c-.1-.2-.2-.4-.3-.7-.6-1.2-1.2-2.5-1.8-3.7-1.3-2.5-2.7-4.9-4.1-7.3-2.9-4.9-5.9-9.7-8.7-14.6-7.1-12.7-12.9-26.5-13.4-41.3-.5-14.6 4.3-30.9 12.7-42.9 16.2-23.1 41.4-36.1 69-40.4 5.6-.9 11.3-.3 16 1.8 1.9-1 3.8-2.1 5.6-3.2.5-.3.9-.6 1.4-.9l.1-.1c.7-.7 1.4-1.3 2.1-2.1.7-1.1 2-3 2.5-4 .1-.2.2-.3.2-.5 1.2-3.5 2.1-7.2 2.7-10.9.1-.5.2-1.2.3-1.8l.6-5.4c.5-4.6 1-9.1 1.6-13.7-.2-6 .2-12 1.4-18 3.2-15.5 13.6-29.3 27.3-37h.1c2.8-5.3 7.5-9.4 13.6-10.4 6.3-1 12.6-2 18.9-2.6 1.1-.6 2.3-1.1 3.6-1.5 16.7-5.7 35.5-1.6 47.4 11.8 3.8 4.3 7.2 8.9 10.3 13.7 5.9 3.7 11.2 8.1 16.3 12.7 1.4.8 2.9 1.6 4.4 2.3.7.3 1.4.7 2.1 1 1.4.5 2.8 1 4.2 1.4 1.5.4 6.6 1.2 6.4 1.3h3.1c1-.2 2.1-.5 3.1-.8.6-.2 1.7-.6 2.4-1 .4-.2.7-.4 1.1-.6 2.3-1.3 4.6-2.7 6.8-4.3.5-.3 1.4-1.1 2-1.5.5-.4 1-.8 1.5-1.3 2.5-2.1 5-4.3 7.4-6.5 8.9-8.4 19.2-16.2 30.6-21.1 14.5-6.2 28.6-9.5 44.5-6.9 6.5 1 12.3 3.4 17.5 6.7V271.1L506.2 10H163.9c-49.7 0-90.1 36.5-90.1 81.6v685.3c0 45.1 40.3 81.6 90.1 81.6H403c-3.6-12.2-5.9-24.9-5.8-37.6 0-15.9 3.1-34.5 12.9-47.6 4.4-6 9.1-10.2 14.9-14.8 1.9-1.5 3.8-3.1 5.5-5zm17.9-685.9c18.6 0 33.7 15.1 33.7 33.7S467 135 448.4 135s-33.7-15.1-33.7-33.7 15.1-33.7 33.7-33.7zm-279.2 67.3c-18.6 0-33.7-15.1-33.7-33.7s15.1-33.7 33.7-33.7 33.7 15.1 33.7 33.7c0 18.7-15.1 33.7-33.7 33.7zm139.6 0c-18.6 0-33.7-15.1-33.7-33.7s15.1-33.7 33.7-33.7 33.7 15.1 33.7 33.7c0 18.7-15.1 33.7-33.7 33.7z"/></svg>
