<svg xmlns="http://www.w3.org/2000/svg" fill="#93a1a1" viewBox="0 0 1000 1000" xml:space="preserve"><path d="M745 348.6V255c0-135.3-109.7-245-245-245S255 119.7 255 255v93.6c-75.2 67.3-122.5 165.1-122.5 273.9C132.5 825.5 297 990 500 990s367.5-164.5 367.5-367.5c0-108.8-47.3-206.6-122.5-273.9zM316.3 255c0-101.3 82.4-183.8 183.8-183.8S683.8 153.7 683.8 255v49.2C629.7 272.9 566.9 255 500 255s-129.7 17.9-183.8 49.2V255zM500 928.8c-169.1 0-306.3-137.1-306.3-306.3S330.9 316.3 500 316.3s306.3 137.1 306.3 306.3S669.1 928.8 500 928.8z"/><path d="M500 346.9c-152.2 0-275.6 123.4-275.6 275.6 0 152.2 123.4 275.6 275.6 275.6 152.2 0 275.6-123.4 275.6-275.6 0-152.2-123.4-275.6-275.6-275.6zm234.5 339.7-46.2-15.1-7.5 23.3 46.2 15.1c-7 18.7-16.2 36.3-27.3 52.5l-20.2-14.8-7.2 9.9 20.2 14.8c-11.7 15.4-25.2 29.3-40.2 41.5L623.6 774 604 788.5l28.7 39.8c-16.2 10.6-33.8 19.4-52.4 25.9l-7.6-23.5-11.6 3.8 9.4 23.5c-18.2 5.4-38 8.7-55.2 9.6v-36.3h-30.6v36.3c-21.1-1-37.7-4.3-56-9.7l7.6-21.4-12-4-6.8 21.5c-18.3-6.5-35.5-15.1-51.4-25.6l28.7-39.8-19.7-14.4-28.7 39.8c-14.9-12.1-28.4-26-40.1-41.3l18.3-13.4-7.6-10.5-18.2 13.2c-10.9-16-20-33.5-27-52l46.2-15.1-7.5-23.3-46.2 15.1c-4.8-18.1-7.6-35.4-8.1-56.4h10.3v-13H255c.4-20.3 1.3-40 6.3-58.7l47.7 15.1 8.3-23.3-45.9-15.4c6.9-18.3 16-35.6 26.8-51.4L318 498l7.2-9.9-19.7-14.4c11.9-15.8 25.7-30.1 41-42.5l28.7 39.8 19.7-14.4-28.7-39.8c16.1-10.6 33.5-19.2 52-25.7l7.6 23.4 11.6-3.8-8.8-23.4c18.3-5.4 35.2-8.8 56.2-9.8v36.3h30.6v-36.3c17.2 1 36.7 4.2 54.7 9.5l-9.1 25.4 11.8 4 8-25.5c18.6 6.5 35.9 15.2 52.1 25.8l-28.7 39.8 19.7 14.4 28.7-39.8c15.2 12.3 28.8 26.4 40.7 42.1L671.7 489l7.6 10.5 21.6-15.8c10.7 15.8 19.6 33 26.4 51.2L681 550l7.5 23.3 46.2-15.1c5 18.8 10.1 38.4 10.5 58.7h-15.3v13h13c-.8 21.3-3.6 38.6-8.4 56.7z"/><path d="M345 622.5c0 85.6 69.4 155 155 155s155-69.4 155-155-69.4-155-155-155-155 69.4-155 155z"/></svg>
