<svg xmlns="http://www.w3.org/2000/svg" fill="#93a1a1" viewBox="0 0 1000 1000" xml:space="preserve"><path d="M500 10C262.8 10 70.5 202.3 70.5 439.5c0 122.7 51.7 233.1 134.2 311.3L190.3 990l204-134.7c33.8 8.6 69.1 13.6 105.7 13.6 237.2 0 429.5-192.2 429.5-429.5C929.5 202.3 737.2 10 500 10zM335.5 390.3v86.2h-92.8V405c0-26.3 5.5-47.1 16.4-62.3 11-15.2 29.7-28.7 56.3-40.3l20.1 38c-16.4 7.7-27.7 15.3-33.9 22.9-6.3 7.6-9.7 16.6-10.5 27h44.4zm142.3 0v86.2H385V405c0-26.3 5.5-47.1 16.4-62.3 11-15.2 29.7-28.7 56.3-40.3l20.1 38c-16.4 7.7-27.7 15.3-33.9 22.9-6.3 7.6-9.8 16.6-10.5 27h44.4zM615 461c0 26.3-5.4 47.1-16.4 62.3-11 15.2-29.7 28.7-56.3 40.3l-20.1-38c16.4-7.7 27.6-15.4 33.9-22.9 6.3-7.6 9.7-16.7 10.5-27h-44.4v-86.2H615V461zm142.4 0c0 26.3-5.5 47.1-16.5 62.3-10.9 15.2-29.7 28.7-56.3 40.3l-20-38c16.3-7.7 27.6-15.4 33.9-22.9 6.3-7.6 9.7-16.7 10.5-27h-44.5v-86.2h92.8l.1 71.5z"/></svg>
