<svg xmlns="http://www.w3.org/2000/svg" fill="#93a1a1" viewBox="0 0 1000 1000" xml:space="preserve"><path d="M374.2 308.1c-21.9 33.5-46.9 83.3-74.9 149.3-8-16.4-14.8-29.6-20.2-39.7s-12.8-21.6-22.2-34.7c-9.3-13.1-18.6-23.4-27.9-30.9s-20.8-13.9-34.4-19.1c-13.7-5.3-28.5-7.9-44.6-7.9H27.5c-5.1 0-9.3-1.6-12.6-4.9s-4.9-7.5-4.9-12.6v-105c0-5.1 1.6-9.3 4.9-12.6 3.3-3.3 7.5-4.9 12.6-4.9H150c91.1-.1 165.9 40.9 224.2 123zM990 745c0 5.1-1.6 9.3-4.9 12.6l-175 175c-3.3 3.3-7.5 4.9-12.6 4.9-4.7 0-8.8-1.7-12.3-5.2s-5.2-7.6-5.2-12.3V815c-11.7 0-27.2.1-46.5.3-19.3.2-34.1.4-44.3.6s-23.5 0-39.9-.6-29.3-1.5-38.8-2.7-21.1-3.2-35-5.7-25.3-5.9-34.4-10.1c-9.1-4.2-19.7-9.4-31.7-15.6-12-6.2-22.8-13.5-32.3-21.9-9.5-8.4-19.5-18.1-30.1-29.3-10.6-11.1-20.8-23.8-30.6-38 21.5-33.9 46.3-83.7 74.4-149.3 8 16.4 14.8 29.6 20.2 39.7 5.5 10 12.8 21.6 22.2 34.7 9.3 13.1 18.6 23.4 27.9 30.9 9.3 7.5 20.8 13.9 34.4 19.1 13.7 5.3 28.5 7.9 44.6 7.9h140V570c0-5.1 1.6-9.3 4.9-12.6 3.3-3.3 7.5-4.9 12.6-4.9 4.4 0 8.7 1.8 13.1 5.5l174.4 174.4c3.3 3.3 4.9 7.5 4.9 12.6zm0-490c0 5.1-1.6 9.3-4.9 12.6l-175 175c-3.3 3.3-7.5 4.9-12.6 4.9-4.7 0-8.8-1.7-12.3-5.2s-5.2-7.6-5.2-12.3V325H640c-17.5 0-33.4 2.7-47.6 8.2-14.2 5.5-26.8 13.7-37.7 24.6s-20.2 22.2-27.9 33.6c-7.7 11.5-15.9 25.6-24.6 42.4-11.7 22.6-25.9 53.8-42.7 93.5-10.5 24.1-19.5 44.3-27 60.7-7.5 16.4-17.3 35.5-29.5 57.4s-23.9 40.1-35 54.7c-11.1 14.6-24.6 29.7-40.5 45.4-15.9 15.7-32.3 28.2-49.2 37.4-16.9 9.3-36.4 16.9-58.2 23-21.9 6-45.2 9-70 9H27.5c-5.1 0-9.3-1.6-12.6-4.9-3.3-3.3-4.9-7.5-4.9-12.6v-105c0-5.1 1.6-9.3 4.9-12.6 3.3-3.3 7.5-4.9 12.6-4.9H150c17.5 0 33.4-2.7 47.6-8.2 14.2-5.5 26.8-13.7 37.7-24.6 10.9-10.9 20.2-22.2 27.9-33.6 7.7-11.5 15.9-25.6 24.6-42.4 11.7-22.6 25.9-53.8 42.7-93.5 10.6-24.1 19.6-44.3 27.1-60.7 7.5-16.4 17.3-35.5 29.5-57.4s23.9-40.1 35-54.7c11.1-14.6 24.6-29.7 40.5-45.4 15.9-15.7 32.3-28.2 49.2-37.4s36.4-16.9 58.2-23 45.2-9 70-9h140V80c0-5.1 1.6-9.3 4.9-12.6 3.3-3.3 7.5-4.9 12.6-4.9 4.4 0 8.7 1.8 13.1 5.5L985 242.4c3.4 3.3 5 7.5 5 12.6z"/></svg>
