<svg xmlns="http://www.w3.org/2000/svg" fill="#93a1a1" viewBox="0 0 1000 1000" xml:space="preserve"><path d="M20.33 9.72c-2.85 1.19-6.18 4.28-7.61 6.9-2.85 5-3.81 957.54-1.19 964.67 4.28 11.18-17.12 10.7 488.52 10.7s484.24.48 488.52-10.7c.71-2.14 1.43-219.52 1.43-482.81 0-467.83 0-478.77-4.52-484.24l-4.52-5.71-477.82-.48c-272.32-.23-479.71.48-482.81 1.67zm303.72 174.81v139.14H48.16V45.39h275.9v139.14zm318.23.48.48 138.66H362.11V45.39l139.85.48 139.61.71.71 138.43zm309.67-.48v139.14H680.81V45.39h271.14v139.14zm-627.9 315.14v137.95H48.16v-275.9h275.9v137.95zm318.71 0v137.95H362.11v-275.9h280.64v137.95zm309.19 0v137.95H680.81v-275.9h271.14v137.95zM324.05 814.8v139.13H48.16V675.66h275.9V814.8zm318.23-.71-.71 138.66-139.61.71-139.85.48V675.66h280.64l-.47 138.43zm309.67.71v139.13H680.81V675.66h271.14V814.8z"/><path d="M167.32 106.76c-15.7 7.85-18.08 13.56-18.79 49.23-.95 34.72 1.19 42.57 12.6 50.18 7.61 5 25.45 3.33 32.11-2.62 4.76-4.28 4.76-4.04 4.76 11.42 0 8.56-1.19 18.55-2.85 21.88-2.38 5.23-4.04 6.18-11.18 5.47-7.61-.71-8.8-1.66-10.7-9.75-2.14-8.56-2.38-8.8-13.8-8.8h-11.42v9.28c0 5.47 2.14 12.13 5.47 17.13 14.51 22.12 53.04 21.88 63.98-.24 3.8-7.13 4.28-15.7 4.28-64.93 0-51.37-.48-57.32-4.76-65.64-7.84-15.94-31.86-21.89-49.7-12.61zm28.3 24.02c1.19 2.62 2.38 14.03 2.38 25.21 0 25.21-2.14 29.73-13.32 29.73-10.46 0-12.84-5.47-12.84-29.73s2.38-29.73 12.84-29.73c5.95 0 9.04 1.43 10.94 4.52zM816.85 113.18c-3.09 5.23-7.38 8.8-11.66 9.75-11.89 2.62-12.61 3.09-12.61 11.65 0 8.09.24 8.32 9.51 8.32h9.51v121.3h26.18V104.84h-8.08c-6.66.01-9.04 1.44-12.85 8.34zM175.4 420.94c-18.08 4.52-24.97 14.98-24.97 38.05v14.51h21.4v-10.94c0-14.51 3.33-19.98 11.89-19.98 11.18 0 14.98 5.95 13.32 20.93-1.67 13.56-4.28 19.74-17.12 40.91-6.18 10.23-8.32 16.41-8.8 26.16l-.48 13.08 10.94.71 10.94.72 1.19-11.89c.95-8.56 3.8-15.94 10.94-26.88 13.79-21.17 17.12-30.44 17.12-47.57 0-16.41-4.99-27.35-14.75-33.53-6.88-4.52-22.34-6.66-31.62-4.28zM169.93 567.92l.71 11.42h23.78l.71-11.42.71-11.18H169.2l.73 11.18zM472.94 444.25c-.95 14.27-2.14 34.96-2.85 46.38l-1.43 20.93h12.13c11.89 0 12.13-.24 12.13-6.9 0-12.84 10.46-18.08 20.93-10.7 4.76 3.33 5.23 5.47 5.23 29.25 0 21.88-.71 26.16-4.28 29.49-5 4.52-10.7 5-17.36 1.67-3.57-1.9-4.52-4.99-4.52-14.03 0-6.19-.48-11.89-.95-12.37-.71-.48-5.95-.71-11.89-.24l-10.94.95v11.66c0 22.12 9.99 35.68 28.54 38.77 20.45 3.33 40.43-7.61 45.19-24.5 2.85-10.7 3.09-50.66 0-63.27-3.09-13.56-13.79-22.59-26.88-22.59-5.47 0-12.61 1.67-15.46 3.81l-5.47 3.81.71-16.41.71-16.17 22.12-.71 21.88-.71V418.8h-66.12l-1.42 25.45zM167.32 737.03c-13.56 6.66-17.84 14.99-18.79 35.2l-.95 17.6h24.26V777.7c0-16.41 2.85-21.17 13.32-21.17 6.66 0 8.56 1.19 10.46 6.18 6.42 16.65-.48 35.44-21.64 60.41-21.64 25.45-25.69 34.49-25.92 55.18v16.17h71.34v-23.78h-23.78c-14.98 0-23.78-.95-23.78-2.38 0-5.47 8.32-18.07 23.07-35.44 21.41-24.97 25.21-33.06 26.16-56.13.95-15.46.24-20.45-3.57-27.11-8.56-15.69-32.58-21.64-50.18-12.6zM794.97 737.98c-11.66 7.85-16.65 19.03-16.65 36.86v14.98h23.78v-12.13c0-16.41 2.85-21.17 13.32-21.17 6.66 0 8.56 1.19 10.7 6.42 4.28 10.94-.95 32.34-12.13 49.47-10.7 16.41-14.27 26.4-14.27 39.72v9.04H823.03l.95-12.6c.71-9.75 3.09-15.7 11.18-27.35 12.61-18.55 16.89-30.68 16.89-47.8 0-24.97-11.89-38.53-34.96-40.2-11.41-.71-15.22 0-22.12 4.76zM801.39 872.12c-.95.95-1.67 6.42-1.67 12.13v10.23H823.74l-.71-11.42-.71-11.18-9.51-.71c-5.47-.48-10.47 0-11.42.95z"/></svg>
